<mxfile host="app.diagrams.net" agent="Mozilla/5.0 (Windows NT 10.0; Win64; x64) AppleWebKit/537.36 (KHTML, like Gecko) Chrome/131.0.0.0 Safari/537.36" version="26.0.4">
  <diagram id="C5RBs43oDa-KdzZeNtuy" name="Page-1">
    <mxGraphModel dx="1290" dy="530" grid="1" gridSize="10" guides="1" tooltips="1" connect="1" arrows="1" fold="1" page="1" pageScale="1" pageWidth="827" pageHeight="1169" math="0" shadow="0">
      <root>
        <mxCell id="WIyWlLk6GJQsqaUBKTNV-0" />
        <mxCell id="WIyWlLk6GJQsqaUBKTNV-1" parent="WIyWlLk6GJQsqaUBKTNV-0" />
        <mxCell id="icGN9eRQu2_AcBcm9v_k-4" style="edgeStyle=orthogonalEdgeStyle;rounded=0;orthogonalLoop=1;jettySize=auto;html=1;exitX=0.5;exitY=1;exitDx=0;exitDy=0;exitPerimeter=0;" edge="1" parent="WIyWlLk6GJQsqaUBKTNV-1" source="icGN9eRQu2_AcBcm9v_k-0" target="icGN9eRQu2_AcBcm9v_k-1">
          <mxGeometry relative="1" as="geometry" />
        </mxCell>
        <mxCell id="icGN9eRQu2_AcBcm9v_k-0" value="START" style="strokeWidth=2;html=1;shape=mxgraph.flowchart.start_1;whiteSpace=wrap;" vertex="1" parent="WIyWlLk6GJQsqaUBKTNV-1">
          <mxGeometry x="364" y="20" width="100" height="60" as="geometry" />
        </mxCell>
        <mxCell id="icGN9eRQu2_AcBcm9v_k-5" style="edgeStyle=orthogonalEdgeStyle;rounded=0;orthogonalLoop=1;jettySize=auto;html=1;exitX=0.5;exitY=1;exitDx=0;exitDy=0;entryX=0.5;entryY=0;entryDx=0;entryDy=0;" edge="1" parent="WIyWlLk6GJQsqaUBKTNV-1" source="icGN9eRQu2_AcBcm9v_k-1" target="icGN9eRQu2_AcBcm9v_k-2">
          <mxGeometry relative="1" as="geometry" />
        </mxCell>
        <mxCell id="icGN9eRQu2_AcBcm9v_k-1" value="READ LoanAmount ,&lt;div&gt;ManyMonths&lt;/div&gt;" style="shape=parallelogram;html=1;strokeWidth=2;perimeter=parallelogramPerimeter;whiteSpace=wrap;rounded=1;arcSize=12;size=0.23;" vertex="1" parent="WIyWlLk6GJQsqaUBKTNV-1">
          <mxGeometry x="254" y="150" width="320" height="60" as="geometry" />
        </mxCell>
        <mxCell id="icGN9eRQu2_AcBcm9v_k-7" style="edgeStyle=orthogonalEdgeStyle;rounded=0;orthogonalLoop=1;jettySize=auto;html=1;exitX=0.5;exitY=1;exitDx=0;exitDy=0;entryX=0.5;entryY=0;entryDx=0;entryDy=0;" edge="1" parent="WIyWlLk6GJQsqaUBKTNV-1" source="icGN9eRQu2_AcBcm9v_k-2" target="icGN9eRQu2_AcBcm9v_k-6">
          <mxGeometry relative="1" as="geometry" />
        </mxCell>
        <mxCell id="icGN9eRQu2_AcBcm9v_k-2" value="InstallmentAmount = LoanAmount / ManyMonths" style="rounded=1;whiteSpace=wrap;html=1;absoluteArcSize=1;arcSize=14;strokeWidth=2;" vertex="1" parent="WIyWlLk6GJQsqaUBKTNV-1">
          <mxGeometry x="229.5" y="300" width="369" height="90" as="geometry" />
        </mxCell>
        <mxCell id="icGN9eRQu2_AcBcm9v_k-9" style="edgeStyle=orthogonalEdgeStyle;rounded=0;orthogonalLoop=1;jettySize=auto;html=1;exitX=0.5;exitY=1;exitDx=0;exitDy=0;" edge="1" parent="WIyWlLk6GJQsqaUBKTNV-1" source="icGN9eRQu2_AcBcm9v_k-6" target="icGN9eRQu2_AcBcm9v_k-8">
          <mxGeometry relative="1" as="geometry" />
        </mxCell>
        <mxCell id="icGN9eRQu2_AcBcm9v_k-6" value="PRINT InstallmentAmount&amp;nbsp;" style="shape=parallelogram;html=1;strokeWidth=2;perimeter=parallelogramPerimeter;whiteSpace=wrap;rounded=1;arcSize=12;size=0.23;" vertex="1" parent="WIyWlLk6GJQsqaUBKTNV-1">
          <mxGeometry x="254" y="460" width="320" height="60" as="geometry" />
        </mxCell>
        <mxCell id="icGN9eRQu2_AcBcm9v_k-8" value="END" style="strokeWidth=2;html=1;shape=mxgraph.flowchart.terminator;whiteSpace=wrap;" vertex="1" parent="WIyWlLk6GJQsqaUBKTNV-1">
          <mxGeometry x="364" y="585" width="100" height="60" as="geometry" />
        </mxCell>
      </root>
    </mxGraphModel>
  </diagram>
</mxfile>
